<svg id="_0372_banker" xmlns="http://www.w3.org/2000/svg" viewBox="0 0 500 500" data-imageid="banker-1" imageName="Banker" class="illustrations_image" style="width: 158px;"><defs><style>.cls-1_banker-1{fill:#fff;}.cls-2_banker-1{fill:#f4a28c;}.cls-3_banker-1{opacity:.46;}.cls-3_banker-1,.cls-4_banker-1,.cls-5_banker-1,.cls-6_banker-1,.cls-7_banker-1,.cls-8_banker-1{fill:none;}.cls-9_banker-1{fill:#a5a5a5;}.cls-4_banker-1{opacity:.58;}.cls-10_banker-1{fill:#e6e6e6;}.cls-5_banker-1{opacity:.09;}.cls-6_banker-1{opacity:.73;}.cls-7_banker-1{opacity:.08;}.cls-8_banker-1{opacity:.3;}.cls-11_banker-1{fill:#24285b;}.cls-12_banker-1{fill:#000001;}.cls-13_banker-1{fill:#ffd200;}.cls-14_banker-1{fill:#68e1fd;}</style></defs><g id="bg_banker-1" class="cls-8_banker-1"><path class="cls-10_banker-1" d="m143.49,56.39c-60.2,24.19-97.41,82.91-111.86,155.36-10.76,53.92-1.32,109.51,71.04,129.72,156.45,43.71,325.43,29.29,345.68-58.13,20.25-87.42,29.79-202.19-106.78-246.66-48.69-15.86-134.39-5.89-198.08,19.71Z"/></g><g id="banker_banker-1"><path class="cls-9_banker-1" d="m336.5,186.43c0,10.65-10.2,11.2-22.78,11.2s-22.78-.55-22.78-11.2,10.2-27.36,22.78-27.36,22.78,16.71,22.78,27.36Z"/><path class="cls-2_banker-1" d="m290.95,205.51s3.22-5.07,5.83-7.83c2.61-2.76,12.28-6.91,13.35-5.07s-4.76,3.99-4.76,3.99c0,0,23.94-5.83,23.02-1.38-.92,4.45-21.16,4.85-24.39,12.25-3.24,7.4-1.55,3.87-1.55,3.87l-11.51-5.83Z"/><path class="cls-13_banker-1" d="m251.05,327.59l-175.98-.86s-34.34-95.9-13.42-129.36c15.03-24.04,71.6-29.74,110.03-19.41,15.08,4.04,27.37,10.57,33.25,19.41,17.76,26.71,38.71,102.28,44.56,124.19,1,3.84,1.57,6.02,1.57,6.02Z"/><g class="cls-7_banker-1"><path class="cls-12_banker-1" d="m251.05,327.59l-175.98-.86s-34.34-95.9-13.42-129.36c15.03-24.04,71.6-29.74,110.03-19.41,15.08,4.04,27.37,10.57,33.25,19.41,17.76,26.71,38.71,102.28,44.56,124.19,1,3.84,1.57,6.02,1.57,6.02Z"/></g><path class="cls-13_banker-1" d="m249.48,321.56l-152.19-.72s-32.22-90.03-12.6-121.44c12.1-19.34,52.87-26.04,86.98-21.44,15.08,4.04,27.37,10.57,33.25,19.41,17.76,26.71,38.71,102.28,44.56,124.19Z"/><path class="cls-11_banker-1" d="m159.49,106.6c-6.02-.67-11.65,3.95-14.06,9.51-2.8,6.46-1.95,14.53,2.67,19.84,1.62,1.86,3.76,3.41,6.21,3.71,1.47.18,2.96-.1,4.36-.59,6.43-2.24,11-10.21,12.41-16.6,1.52-6.9-4.69-15.11-11.59-15.87Z"/><path class="cls-2_banker-1" d="m165.36,178.8c1.9-3.25,5.62-11.56,3.6-24.44l10.56.14s4.83,19.11,10.08,23.06l-.09.12-24.15,1.13Z"/><g class="cls-5_banker-1"><path class="cls-12_banker-1" d="m165.36,178.8c1.9-3.25,5.62-11.56,3.6-24.44l10.56.14s4.83,19.11,10.08,23.06l-.09.12-24.15,1.13Z"/></g><path class="cls-2_banker-1" d="m184.76,137.97s3.49,23.22-8.56,26.04c-12.05,2.82-12.08-24.07-12.08-24.07,0,0-.59-14.06,6.45-16.15,7.04-2.09,14.86-2.77,14.19,14.19Z"/><path class="cls-2_banker-1" d="m185.2,143.38s6.18-2.26,6.02,1.01c-.17,3.27,1.11,7.55-6.27,5.99l.25-7.01Z"/><path class="cls-2_banker-1" d="m165.67,143.1s-7.54-1.34-6.95,1.89c.58,3.22.98,7.52,8.1,5.03l-1.15-6.92Z"/><path class="cls-11_banker-1" d="m185.93,142.55c-.4.41-.89.64-1.48.53-.76-.14-1.34-.74-1.82-1.33-2.32-2.84-3.7-6.45-3.85-10.12-.68,2.61-1.51,5.22-3.01,7.46-1.5,2.24-3.74,4.09-6.39,4.6-7.87,1.52-8.17-7.51-8.07-12.98.07-3.57.5-7.69,3.2-10.31,1.33-1.29,2.43-1.42,4.12-1.72,1.92-.34,3.68-1.18,5.64-1.4,2.22-.26,4.56.06,6.47,1.21,1.61.97,2.83,2.47,3.83,4.06,3.3,5.24,3.9,11.3,2.62,17.32-.16.76-.57,1.97-1.26,2.67Z"/><path class="cls-14_banker-1 targetColor" d="m206.6,185.5c.73.54,58.09,58.51,62.62,55.99,4.54-2.52,20.26-40.05,20.26-40.05l15.89,6.6s-14.85,80.21-31.25,77.4c-16.4-2.81-57.86-26.35-57.86-26.35l-9.67-73.6Z" style="fill: rgb(186, 12, 47);"/><g class="cls-3_banker-1"><path class="cls-1_banker-1" d="m206.6,185.5c.73.54,58.09,58.51,62.62,55.99,4.54-2.52,20.26-40.05,20.26-40.05l15.89,6.6s-14.85,80.21-31.25,77.4c-16.4-2.81-57.86-26.35-57.86-26.35l-9.67-73.6Z"/></g><path class="cls-14_banker-1 targetColor" d="m138.32,258.92c4.84,16.97,10.51,33.72,15.18,46.71,28.15.82,68.06,8.61,68.87-.67.46-5.01-6.45-4.56-4.47-11.51,1.17-4.1,5.62-23.67,7.58-28.29,10.64-25.15,4.75-52.04-7.37-68.18-20.13-26.83-57.87-29.07-83.47-14.71-12.47,7-6.11,42.3,3.67,76.65Z" style="fill: rgb(186, 12, 47);"/><path class="cls-11_banker-1" d="m188.7,176.46c1.22.82,16.65,36.46,7.6,82.63,0,0-13.24-63.12-26.57-86.06,0,0,12.31.23,18.96,3.43Z"/><g class="cls-7_banker-1"><path class="cls-12_banker-1" d="m134.27,268.48l9.14,36.28,10.09.87,68.85,5.89c.46-5.01-6.43-11.13-4.44-18.08-24.81-4.22-54.61-10.74-43.54-43.45,12.21-36.04-6.5-60.92-6.5-60.92l-29.55,69.85-4.05,9.57Z"/></g><path class="cls-14_banker-1 targetColor" d="m168.92,193.32c-1.4-11.22-12.33-18.76-23.3-16.03-14.59,3.62-32.91,15.1-35.65,49.49-4.65,58.36,11.88,85.92,11.88,85.92h91.36s0-11.55,0-11.55l-63.47-7.75s24.19-59.87,19.18-100.08Z" style="fill: rgb(186, 12, 47);"/><g class="cls-3_banker-1"><path class="cls-1_banker-1" d="m168.92,193.32c-1.4-11.22-12.33-18.76-23.3-16.03-14.59,3.62-32.91,15.1-35.65,49.49-4.65,58.36,11.88,85.92,11.88,85.92h91.36s0-11.55,0-11.55l-63.47-7.75s24.19-59.87,19.18-100.08Z"/></g><rect class="cls-9_banker-1" x="15.08" y="323.28" width="469.84" height="147.67"/><rect class="cls-10_banker-1" x="15.08" y="312.31" width="469.84" height="20.08"/><g class="cls-4_banker-1"><path class="cls-14_banker-1 targetColor" d="m35.54,298.74s-10.7-2.92-13.03-12.89c0,0,16.58-3.35,17.06,13.77l-4.02-.88Z" style="fill: rgb(186, 12, 47);"/></g><g class="cls-6_banker-1"><path class="cls-14_banker-1 targetColor" d="m36.85,297.68s-7.48-11.82-.9-22.88c0,0,12.61,8.01,7.01,22.9l-6.11-.03Z" style="fill: rgb(186, 12, 47);"/></g><path class="cls-14_banker-1 targetColor" d="m38.78,297.69s3.95-12.48,15.89-14.85c0,0,2.24,8.11-7.73,14.88l-8.16-.03Z" style="fill: rgb(186, 12, 47);"/><polygon class="cls-11_banker-1" points="31.01 297.41 33.18 312.25 46.85 312.31 48.86 297.48 31.01 297.41"/><path class="cls-2_banker-1" d="m213.06,301.53s7.27-4.6,13.81-3.88,23.57,4.12,18.33,7.03c-5.24,2.91-13.42.24-16.72,2.42-3.3,2.18-14.45,8.24-17.11,2.91-2.67-5.33,1.7-8.48,1.7-8.48Z"/><polygon class="cls-11_banker-1" points="266.97 265.89 251.47 304.36 228.34 304.36 228.34 312.31 304.41 312.31 304.41 304.36 319.91 265.89 266.97 265.89"/><path class="cls-1_banker-1" d="m225.94,218.94c-.69,0-19.34-1.15-19.34-1.15v13.12l18.42,1.15.92-13.12Z"/><rect class="cls-10_banker-1" x="339.94" y="283.73" width="59.56" height="28.58"/><g class="cls-7_banker-1"><rect class="cls-12_banker-1" x="356.41" y="290.01" width="43.09" height="1.14"/></g><g class="cls-7_banker-1"><rect class="cls-12_banker-1" x="352.72" y="305.96" width="43.09" height="1.14"/></g><g class="cls-7_banker-1"><rect class="cls-12_banker-1" x="339.94" y="297.59" width="40.23" height=".86"/></g><rect class="cls-14_banker-1 targetColor" x="365.15" y="283.73" width="9.15" height="28.58" style="fill: rgb(186, 12, 47);"/><rect class="cls-10_banker-1" x="344.49" y="256.86" width="59.56" height="28.58"/><g class="cls-7_banker-1"><rect class="cls-12_banker-1" x="360.95" y="263.14" width="43.09" height="1.14"/></g><g class="cls-7_banker-1"><rect class="cls-12_banker-1" x="357.26" y="279.08" width="43.09" height="1.14"/></g><g class="cls-7_banker-1"><rect class="cls-12_banker-1" x="344.49" y="270.72" width="40.23" height=".86"/></g><rect class="cls-14_banker-1 targetColor" x="369.69" y="256.86" width="9.15" height="28.58" style="fill: rgb(186, 12, 47);"/><rect class="cls-10_banker-1" x="339.91" y="228.28" width="59.56" height="28.58"/><g class="cls-7_banker-1"><rect class="cls-12_banker-1" x="356.38" y="234.56" width="43.09" height="1.14"/></g><g class="cls-7_banker-1"><rect class="cls-12_banker-1" x="352.69" y="250.51" width="43.09" height="1.14"/></g><g class="cls-7_banker-1"><rect class="cls-12_banker-1" x="339.91" y="242.14" width="40.23" height=".86"/></g><rect class="cls-14_banker-1 targetColor" x="365.12" y="228.28" width="9.15" height="28.58" style="fill: rgb(186, 12, 47);"/><rect class="cls-10_banker-1" x="416.07" y="283.73" width="59.56" height="28.58"/><g class="cls-7_banker-1"><rect class="cls-12_banker-1" x="432.54" y="290.01" width="43.09" height="1.14"/></g><g class="cls-7_banker-1"><rect class="cls-12_banker-1" x="428.85" y="305.96" width="43.09" height="1.14"/></g><g class="cls-7_banker-1"><rect class="cls-12_banker-1" x="416.07" y="297.59" width="40.23" height=".86"/></g><rect class="cls-14_banker-1 targetColor" x="441.28" y="283.73" width="9.15" height="28.58" style="fill: rgb(186, 12, 47);"/><rect class="cls-10_banker-1" x="410.95" y="256.86" width="59.56" height="28.58"/><g class="cls-7_banker-1"><rect class="cls-12_banker-1" x="427.42" y="263.14" width="43.09" height="1.14"/></g><g class="cls-7_banker-1"><rect class="cls-12_banker-1" x="423.73" y="279.08" width="43.09" height="1.14"/></g><g class="cls-7_banker-1"><rect class="cls-12_banker-1" x="410.95" y="270.72" width="40.23" height=".86"/></g><rect class="cls-14_banker-1 targetColor" x="436.16" y="256.86" width="9.15" height="28.58" style="fill: rgb(186, 12, 47);"/><rect class="cls-10_banker-1" x="348.57" y="199.71" width="59.56" height="28.58"/><g class="cls-7_banker-1"><rect class="cls-12_banker-1" x="365.04" y="205.98" width="43.09" height="1.14"/></g><g class="cls-7_banker-1"><rect class="cls-12_banker-1" x="361.35" y="221.93" width="43.09" height="1.14"/></g><g class="cls-7_banker-1"><rect class="cls-12_banker-1" x="348.57" y="213.57" width="40.23" height=".86"/></g><rect class="cls-14_banker-1 targetColor" x="373.78" y="199.71" width="9.15" height="28.58" style="fill: rgb(186, 12, 47);"/><rect class="cls-10_banker-1" x="413" y="228.28" width="59.56" height="28.58"/><g class="cls-7_banker-1"><rect class="cls-12_banker-1" x="429.47" y="234.56" width="43.09" height="1.14"/></g><g class="cls-7_banker-1"><rect class="cls-12_banker-1" x="425.78" y="250.51" width="43.09" height="1.14"/></g><g class="cls-7_banker-1"><rect class="cls-12_banker-1" x="413" y="242.14" width="40.23" height=".86"/></g><rect class="cls-14_banker-1 targetColor" x="438.21" y="228.28" width="9.15" height="28.58" style="fill: rgb(186, 12, 47);"/><path class="cls-10_banker-1" d="m255.98,355.72c0,2.8,0,5.61-.02,8.41,0,.54.16.72.69.83,4.15.86,7.95,2.49,11.23,5.23,3.51,2.92,5.57,6.65,6.35,11.12.21,1.19.3,2.39.46,3.65h-13c-.18-1.98-.59-3.91-1.94-5.38-1.04-1.13-2.31-2.03-3.49-3.04-.08.06-.15.12-.23.18v16.19c.43.1.91.23,1.4.33,3.51.74,6.94,1.72,10.2,3.26,5.25,2.47,8.15,6.63,8.84,12.33.62,5.1-.31,9.87-3.37,14.11-2.46,3.41-5.71,5.79-9.65,7.16-2.4.83-4.9,1.38-7.48,2.09v6.3h-11.95v-6.49c-2.41-.65-4.73-1.15-6.96-1.92-4.39-1.51-8.07-4.06-10.67-8-2.21-3.34-3.06-7.08-3.08-11.1h12.8c.58,4.76,2.9,8.16,7.83,9.48,0-5.83,0-11.61,0-17.38-2.42-.7-4.86-1.35-7.27-2.1-2.9-.91-5.62-2.18-7.82-4.37-2.25-2.25-3.59-4.96-4.14-8.06-.67-3.78-.57-7.52.81-11.14,2.05-5.4,5.87-9.11,11.22-11.14,2.07-.79,4.31-1.13,6.47-1.67.23-.06.47-.1.78-.16v-8.73h11.97Zm.02,64.91c1.71-.13,3.95-1.11,5.37-2.33,2.61-2.23,3.14-6.65,1.09-9.13-1.67-2.02-4.11-2.56-6.47-3.43v14.89Zm-12-45.07c-1.65.83-3.25,1.4-4.58,2.34-3.24,2.28-3.57,7.3-.76,9.74,1.52,1.32,3.43,1.81,5.34,2.4v-14.47Z"/><path class="cls-10_banker-1" d="m315.01,169.44c0,.6,0,1.21,0,1.81,0,.12.03.16.15.18.89.18,1.71.54,2.42,1.13.76.63,1.2,1.43,1.37,2.39.04.26.07.52.1.79h-2.8c-.04-.43-.13-.84-.42-1.16-.22-.24-.5-.44-.75-.65-.02.01-.03.03-.05.04v3.49c.09.02.2.05.3.07.76.16,1.5.37,2.2.7,1.13.53,1.76,1.43,1.91,2.66.13,1.1-.07,2.13-.73,3.04-.53.73-1.23,1.25-2.08,1.54-.52.18-1.06.3-1.61.45v1.36h-2.58v-1.4c-.52-.14-1.02-.25-1.5-.41-.95-.33-1.74-.88-2.3-1.72-.48-.72-.66-1.52-.66-2.39h2.76c.13,1.02.62,1.76,1.69,2.04,0-1.26,0-2.5,0-3.75-.52-.15-1.05-.29-1.57-.45-.63-.2-1.21-.47-1.69-.94-.49-.48-.77-1.07-.89-1.74-.15-.81-.12-1.62.17-2.4.44-1.16,1.26-1.96,2.42-2.4.45-.17.93-.24,1.39-.36.05-.01.1-.02.17-.03v-1.88h2.58Zm0,13.99c.37-.03.85-.24,1.16-.5.56-.48.68-1.43.24-1.97-.36-.44-.89-.55-1.39-.74v3.21Zm-2.59-9.71c-.36.18-.7.3-.99.5-.7.49-.77,1.57-.16,2.1.33.28.74.39,1.15.52v-3.12Z"/><circle class="cls-10_banker-1" cx="285.48" cy="285.44" r="7"/><rect class="cls-13_banker-1" x="420.56" y="222.5" width="19.57" height="5.78"/><rect class="cls-13_banker-1" x="422.52" y="216.72" width="19.57" height="5.78"/><rect class="cls-13_banker-1" x="419.16" y="210.93" width="19.57" height="5.78"/><rect class="cls-13_banker-1" x="416.59" y="205.15" width="19.57" height="5.78"/><rect class="cls-13_banker-1" x="420.56" y="199.37" width="19.57" height="5.78"/><rect class="cls-13_banker-1" x="449.32" y="222.5" width="19.57" height="5.78" transform="translate(918.2 450.78) rotate(-180)"/><rect class="cls-13_banker-1" x="447.36" y="216.72" width="19.57" height="5.78" transform="translate(914.29 439.22) rotate(-180)"/><rect class="cls-13_banker-1" x="444.58" y="210.93" width="19.57" height="5.78" transform="translate(908.73 427.65) rotate(-180)"/><rect class="cls-13_banker-1" x="446.42" y="205.15" width="19.57" height="5.78" transform="translate(912.42 416.08) rotate(-180)"/><circle class="cls-1_banker-1" cx="171.32" cy="143.47" r="5.5"/><circle class="cls-1_banker-1" cx="182.32" cy="143.47" r="5.5"/><path class="cls-9_banker-1" d="m310.23,160.06s-5.32-9.9-5.05-11.74,4.23,0,4.23,0c0,0,.95-3.84,3.27-2.61,2.32,1.23,6.41-3.25,8.05-.24s-4.09,13.75-4.09,13.75l-6.41.84Z"/><rect class="cls-10_banker-1" x="307.65" y="157" width="10.9" height="3.06" rx="1.09" ry="1.09"/></g></svg>